<svg height="512" viewBox="0 0 60 60" width="512" xmlns="http://www.w3.org/2000/svg"><g id="Page-1" fill="none" fill-rule="evenodd"><g id="004---Paint-Brush" fill="rgb(0,0,0)" fill-rule="nonzero"><path id="Shape" d="m2.97 59.994c.298.006 12.868.006 17.03.006.5522847 0 1-.4477153 1-1s-.4477153-1-1-1h-8.49c3.816-1.118 7.233-2.468 8.755-3.989 2.8969412-2.9275584 3.6955694-7.335112 2.01-11.093.2120596.032189.425705.0528859.64.062.6387144-.0002799 1.2732002-.1036075 1.879-.306l3.1-1.034c.7609142.3684763 1.6718203.2134455 2.268-.386l2.873-2.873c.5173556-.5232948.7055639-1.2884188.49-1.992l25.435-29.347c1.4552609-1.68829507 1.3655056-4.21233723-.206-5.793-1.5808091-1.57084751-4.1041042-1.66101186-5.793-.207l-29.35 25.431c-.7035354-.2171666-1.4694893-.0287542-1.992.49l-2.873 2.873c-.5923331.5982148-.7466465 1.5033072-.386 2.264l-1.034 3.1c-.2684903.8070352-.3595654 1.662527-.267 2.508-3.7538386-1.672433-8.14928258-.8699766-11.07 2.021-2.555 2.562-4.632 10.455-5.925 16.626-.18213592.8814091.03740152 1.7981571.5990333 2.5014531.56163177.7032959 1.40710325 1.1201912 2.3069667 1.1375469zm51.298-57.444c.8951524-.76927806 2.2312193-.72139036 3.069.11.8320464.83763527.8795252 2.17444706.109 3.069l-25.176 29.057-7.056-7.056zm-31.234 25.827.007.008 8.574 8.574.008.007-2.873 2.874-.006-.006-8.574-8.574-.008-.008zm-3.81 7.461.674-2.022 6.286 6.284-2.022.674c-1.4019425.472402-2.9505185.1066852-3.993-.943-1.0506066-1.0419269-1.4171439-2.5906926-.945-3.993zm-11.824 5.311c1.48140128-1.4799778 3.4920031-2.3078304 5.586-2.3 2.1631024.0004469 4.237073.8618427 5.764 2.394 3.1607033 3.1096745 3.2058979 8.1916043.101 11.357-.7028122.6189399-1.5006877 1.1206932-2.363 1.486-.727-2.435-2.241-5.677-5.323-7.3-.7742875-.3886243-1.5801839-.7107822-2.409-.963-.437-.146-.874-.292-1.295-.46-.66809424-.2807636-1.30853632-.6232478-1.913-1.023.42544772-1.1640333 1.05233256-2.2441572 1.852-3.191zm-5.378 15.616c.70962317-3.5627488 1.64483947-7.076824 2.8-10.521.60707263.3718071 1.24235101.6954647 1.9.968.461.185.935.344 1.409.5.72370179.2183838 1.42783181.4970253 2.105.833 2.474 1.3 3.729 4.042 4.341 6.094.02.073.034.152.054.226-3.7135009 1.3158574-7.51920753 2.3553575-11.386 3.11-.33792364.0668521-.68693581-.0391392-.93061528-.2826179-.24367947-.2434788-.34995831-.5924035-.28338472-.9303821z"/><path id="Shape" d="m36.556 21.926c-.3618734-.4167211-.9929353-.4614773-1.41-.1l-6.125 5.308c-.4175273.3617465-.4627465.9934727-.101 1.411s.9934727.4627465 1.411.101l6.124-5.308c.2008684-.173704.3243958-.4201715.3433427-.685053s-.0682428-.5264216-.2423427-.726947z"/><path id="Shape" d="m38.863 20.927c.2403288.0004031.4726655-.0862791.654-.244l3.039-2.633c.2700928-.234009.3948265-.5943349.3272152-.9452466s-.3172959-.6390973-.655-.756c-.3377041-.1169028-.7121224-.0447624-.9822152.1892466l-3.038 2.633c-.3157369.2733761-.4283299.7141802-.2823702 1.1054858.1459596.3913055.5197289.6506932.9373702.6505142z"/><path id="Shape" d="m24 60h3c.5522847 0 1-.4477153 1-1s-.4477153-1-1-1h-3c-.5522847 0-1 .4477153-1 1s.4477153 1 1 1z"/><path id="Shape" d="m26 55c0-.5522847-.4477153-1-1-1h-2c-.5522847 0-1 .4477153-1 1s.4477153 1 1 1h2c.5522847 0 1-.4477153 1-1z"/><path id="Shape" d="m29 54c-.5522847 0-1 .4477153-1 1s.4477153 1 1 1h8c.5522847 0 1-.4477153 1-1s-.4477153-1-1-1z"/></g></g></svg>